<svg xmlns="http://www.w3.org/2000/svg" viewBox="0 0 48 60" x="0px" y="0px"><path fill="white" d="M16.94,19.8a3.71,3.71,0,1,0-3.7-3.71A3.72,3.72,0,0,0,16.94,19.8Zm0-5.42a1.71,1.71,0,1,1-1.7,1.71A1.72,1.72,0,0,1,16.94,14.38Z"/><path  fill="white" d="M34,26a8,8,0,0,0-7.93,7H10.62A1.61,1.61,0,0,1,9,31.38V31.3l6.45-6.39a2.75,2.75,0,0,1,3.59-.2l1.6,1.58.13.1a1.83,1.83,0,0,0,2.3-.1l5.12-5a4.84,4.84,0,0,1,4.89-1.16,4.79,4.79,0,0,1,1.48.8l.44.43V22a1,1,0,0,0,2,0V12.62A3.63,3.63,0,0,0,33.39,9H10.62A3.62,3.62,0,0,0,7,12.62V31.38A3.62,3.62,0,0,0,10.62,35H26.08A8,8,0,1,0,34,26ZM10.62,11H33.39A1.63,1.63,0,0,1,35,12.62v6.17a5.92,5.92,0,0,0-1.31-.59,6.87,6.87,0,0,0-6.91,1.63l-4.92,4.85-.5-.49,0,0-.71-.69a4.77,4.77,0,0,0-6.62,0L9,28.48V12.62A1.62,1.62,0,0,1,10.62,11ZM34,40a6,6,0,1,1,6-6A6,6,0,0,1,34,40Z"/><path fill="white" d="M37.11,30.93a1,1,0,0,0-1.41,0l-1.58,1.67L32.54,31a1,1,0,0,0-1.45,1.37l1.66,1.76-1.66,1.76a1,1,0,0,0,.72,1.68,1,1,0,0,0,.73-.31l1.58-1.67,1.58,1.67a1,1,0,0,0,.72.31,1,1,0,0,0,.73-1.68L35.49,34.1l1.66-1.76A1,1,0,0,0,37.11,30.93Z"/></svg>